<mxfile host="app.diagrams.net" modified="2023-06-19T13:00:19.687Z" agent="Mozilla/5.0 (Windows NT 10.0; Win64; x64; rv:109.0) Gecko/20100101 Firefox/114.0" etag="o159xf6xhaz6N3VlmpB1" version="21.5.0" type="github">
  <diagram name="Page-1" id="c7558073-3199-34d8-9f00-42111426c3f3">
    <mxGraphModel dx="1434" dy="782" grid="0" gridSize="10" guides="1" tooltips="1" connect="1" arrows="1" fold="1" page="1" pageScale="1" pageWidth="826" pageHeight="1169" background="none" math="0" shadow="0">
      <root>
        <mxCell id="0" />
        <mxCell id="1" parent="0" />
        <mxCell id="SWWJKwSC1oh0T_Rhf9oI-2" value="&lt;b&gt;PUBLIC&lt;/b&gt;" style="ellipse;shape=cloud;whiteSpace=wrap;html=1;" vertex="1" parent="1">
          <mxGeometry x="335" y="26" width="120" height="80" as="geometry" />
        </mxCell>
        <mxCell id="SWWJKwSC1oh0T_Rhf9oI-4" value="&lt;div&gt;&lt;b&gt;Front End Server&lt;/b&gt;&lt;/div&gt;&lt;div&gt;Hello From Front End Server&lt;b&gt;&lt;br&gt;&lt;/b&gt;&lt;/div&gt;" style="rounded=1;whiteSpace=wrap;html=1;fillColor=#ffe6cc;strokeColor=#d79b00;" vertex="1" parent="1">
          <mxGeometry x="248" y="251" width="278" height="110" as="geometry" />
        </mxCell>
        <UserObject label="opstree.com&#xa;application.opstree.com&#xa;mongo.opstree.com&#xa;mysql.opstree.com&#xa;es.opstree.com&#xa;redis.opstree.com&#xa;kafka.opstree.com&#xa;" id="SWWJKwSC1oh0T_Rhf9oI-5">
          <mxCell style="text;whiteSpace=wrap;fontStyle=1;fontSize=15;" vertex="1" parent="1">
            <mxGeometry x="439" y="110" width="210" height="120" as="geometry" />
          </mxCell>
        </UserObject>
        <mxCell id="SWWJKwSC1oh0T_Rhf9oI-6" value="&lt;div&gt;&lt;b&gt;DataBase Server&lt;/b&gt;&lt;/div&gt;&lt;div&gt;&lt;b&gt;&lt;br&gt;&lt;/b&gt;&lt;/div&gt;&lt;div&gt;&lt;b&gt;&lt;br&gt;&lt;/b&gt;&lt;/div&gt;&lt;div&gt;&lt;b&gt;MySQL&lt;br&gt;&lt;/b&gt;&lt;/div&gt;&lt;div&gt;Hello from mysql server&lt;b&gt;&lt;br&gt;&lt;/b&gt;&lt;/div&gt;&lt;div&gt;&lt;b&gt;&lt;br&gt;&lt;/b&gt;&lt;/div&gt;&lt;div&gt;&lt;b&gt;Mongo DB&lt;/b&gt;&lt;/div&gt;&lt;div&gt;Hello from mongo server&lt;b&gt;&lt;br&gt;&lt;/b&gt;&lt;/div&gt;" style="rounded=1;whiteSpace=wrap;html=1;fillColor=#ffe6cc;strokeColor=#d79b00;" vertex="1" parent="1">
          <mxGeometry x="160" y="920" width="156" height="140" as="geometry" />
        </mxCell>
        <mxCell id="SWWJKwSC1oh0T_Rhf9oI-7" value="&lt;div&gt;&lt;b&gt;MiddleWare Server&lt;/b&gt;&lt;/div&gt;&lt;div&gt;&lt;b&gt;&lt;br&gt;&lt;/b&gt;&lt;/div&gt;&lt;div&gt;&lt;b&gt;Kafka&lt;br&gt;&lt;/b&gt;&lt;/div&gt;&lt;div&gt;Hello From kafka server&lt;b&gt;&lt;br&gt;&lt;/b&gt;&lt;/div&gt;&lt;div&gt;&lt;b&gt;&lt;br&gt;&lt;/b&gt;&lt;/div&gt;&lt;div&gt;&lt;b&gt;Redis&lt;/b&gt;&lt;/div&gt;&lt;div&gt;Hello from redis server&lt;b&gt;&lt;br&gt;&lt;/b&gt;&lt;/div&gt;&lt;div&gt;&lt;b&gt;&lt;br&gt;&lt;/b&gt;&lt;/div&gt;&lt;div&gt;&lt;b&gt;ES&lt;/b&gt;&lt;/div&gt;&lt;div&gt;Hello from ES server&lt;b&gt;&lt;br&gt;&lt;/b&gt;&lt;/div&gt;" style="rounded=1;whiteSpace=wrap;html=1;fillColor=#ffe6cc;strokeColor=#d79b00;" vertex="1" parent="1">
          <mxGeometry x="392" y="921" width="218" height="140" as="geometry" />
        </mxCell>
        <mxCell id="SWWJKwSC1oh0T_Rhf9oI-8" value="&lt;div&gt;&lt;b&gt;Application Server&lt;/b&gt;&lt;/div&gt;&lt;div&gt;Hello from Application server&lt;b&gt;&lt;br&gt;&lt;/b&gt;&lt;/div&gt;&lt;div&gt;&lt;b&gt;Mongo DB &lt;br&gt;&lt;/b&gt;&lt;/div&gt;&lt;div&gt;&lt;b&gt;&lt;br&gt;&lt;/b&gt;&lt;/div&gt;&lt;div&gt;&lt;b&gt;MYSQL&lt;/b&gt;&lt;/div&gt;&lt;div&gt;&lt;b&gt;&lt;br&gt;&lt;/b&gt;&lt;/div&gt;&lt;div&gt;&lt;b&gt;ES&lt;/b&gt;&lt;/div&gt;&lt;div&gt;&lt;b&gt;&lt;br&gt;&lt;/b&gt;&lt;/div&gt;&lt;div&gt;&lt;b&gt;REDIS&lt;/b&gt;&lt;/div&gt;&lt;div&gt;&lt;b&gt;&lt;br&gt;&lt;/b&gt;&lt;/div&gt;&lt;div&gt;&lt;b&gt;KAFKA&lt;br&gt;&lt;/b&gt;&lt;/div&gt;" style="rounded=1;whiteSpace=wrap;html=1;fillColor=#ffe6cc;strokeColor=#d79b00;" vertex="1" parent="1">
          <mxGeometry x="300" y="540" width="190" height="170" as="geometry" />
        </mxCell>
        <mxCell id="SWWJKwSC1oh0T_Rhf9oI-12" value="8080" style="text;whiteSpace=wrap;fontStyle=1" vertex="1" parent="1">
          <mxGeometry x="270" y="567" width="60" height="40" as="geometry" />
        </mxCell>
        <mxCell id="SWWJKwSC1oh0T_Rhf9oI-13" value="8081" style="text;whiteSpace=wrap;fontStyle=1" vertex="1" parent="1">
          <mxGeometry x="270" y="600" width="60" height="40" as="geometry" />
        </mxCell>
        <mxCell id="SWWJKwSC1oh0T_Rhf9oI-14" value="8082" style="text;whiteSpace=wrap;fontStyle=1" vertex="1" parent="1">
          <mxGeometry x="490" y="630" width="30" height="40" as="geometry" />
        </mxCell>
        <mxCell id="SWWJKwSC1oh0T_Rhf9oI-15" value="8083" style="text;whiteSpace=wrap;fontStyle=1" vertex="1" parent="1">
          <mxGeometry x="490" y="659" width="30" height="40" as="geometry" />
        </mxCell>
        <mxCell id="SWWJKwSC1oh0T_Rhf9oI-16" value="8084" style="text;whiteSpace=wrap;fontStyle=1" vertex="1" parent="1">
          <mxGeometry x="490" y="688" width="30" height="40" as="geometry" />
        </mxCell>
        <mxCell id="SWWJKwSC1oh0T_Rhf9oI-17" value="8085" style="text;whiteSpace=wrap;fontStyle=1" vertex="1" parent="1">
          <mxGeometry x="489" y="541" width="60" height="40" as="geometry" />
        </mxCell>
        <mxCell id="SWWJKwSC1oh0T_Rhf9oI-18" value="27017" style="text;whiteSpace=wrap;fontStyle=1" vertex="1" parent="1">
          <mxGeometry x="123" y="1010" width="70" height="40" as="geometry" />
        </mxCell>
        <mxCell id="SWWJKwSC1oh0T_Rhf9oI-19" value="3306" style="text;whiteSpace=wrap;fontStyle=1" vertex="1" parent="1">
          <mxGeometry x="128" y="980" width="60" height="40" as="geometry" />
        </mxCell>
        <mxCell id="SWWJKwSC1oh0T_Rhf9oI-20" value="9200" style="text;whiteSpace=wrap;fontStyle=1" vertex="1" parent="1">
          <mxGeometry x="610" y="1021" width="30" height="40" as="geometry" />
        </mxCell>
        <mxCell id="SWWJKwSC1oh0T_Rhf9oI-21" value="6379" style="text;whiteSpace=wrap;fontStyle=1" vertex="1" parent="1">
          <mxGeometry x="610" y="990" width="40" height="20" as="geometry" />
        </mxCell>
        <mxCell id="SWWJKwSC1oh0T_Rhf9oI-22" value="9092" style="text;whiteSpace=wrap;fontStyle=1" vertex="1" parent="1">
          <mxGeometry x="610" y="960" width="30" height="20" as="geometry" />
        </mxCell>
        <mxCell id="SWWJKwSC1oh0T_Rhf9oI-23" value="" style="endArrow=classic;startArrow=classic;html=1;rounded=0;exitX=0;exitY=0.5;exitDx=0;exitDy=0;strokeColor=#9933FF;strokeWidth=5;" edge="1" parent="1">
          <mxGeometry width="50" height="50" relative="1" as="geometry">
            <mxPoint x="123" y="1025" as="sourcePoint" />
            <mxPoint x="270" y="580" as="targetPoint" />
            <Array as="points">
              <mxPoint x="40" y="1025" />
              <mxPoint x="40" y="790" />
              <mxPoint x="40" y="580" />
            </Array>
          </mxGeometry>
        </mxCell>
        <mxCell id="SWWJKwSC1oh0T_Rhf9oI-24" value="" style="endArrow=classic;startArrow=classic;html=1;rounded=0;strokeWidth=5;strokeColor=#3333FF;entryX=0;entryY=0.25;entryDx=0;entryDy=0;" edge="1" parent="1" target="SWWJKwSC1oh0T_Rhf9oI-13">
          <mxGeometry width="50" height="50" relative="1" as="geometry">
            <mxPoint x="128" y="995" as="sourcePoint" />
            <mxPoint x="260" y="610" as="targetPoint" />
            <Array as="points">
              <mxPoint x="58" y="995" />
              <mxPoint x="58" y="765" />
              <mxPoint x="60" y="610" />
            </Array>
          </mxGeometry>
        </mxCell>
        <mxCell id="SWWJKwSC1oh0T_Rhf9oI-27" value="" style="endArrow=classic;startArrow=classic;html=1;rounded=0;strokeWidth=5;strokeColor=#FF66B3;entryX=1;entryY=0.25;entryDx=0;entryDy=0;" edge="1" parent="1" target="SWWJKwSC1oh0T_Rhf9oI-14">
          <mxGeometry width="50" height="50" relative="1" as="geometry">
            <mxPoint x="642" y="1040" as="sourcePoint" />
            <mxPoint x="530" y="640" as="targetPoint" />
            <Array as="points">
              <mxPoint x="799" y="1040" />
              <mxPoint x="799" y="640" />
            </Array>
          </mxGeometry>
        </mxCell>
        <mxCell id="SWWJKwSC1oh0T_Rhf9oI-28" value="" style="endArrow=classic;startArrow=classic;html=1;rounded=0;strokeWidth=5;strokeColor=#00CC66;" edge="1" parent="1">
          <mxGeometry width="50" height="50" relative="1" as="geometry">
            <mxPoint x="640" y="1003" as="sourcePoint" />
            <mxPoint x="520" y="670" as="targetPoint" />
            <Array as="points">
              <mxPoint x="756" y="1003" />
              <mxPoint x="756" y="848" />
              <mxPoint x="756" y="670" />
            </Array>
          </mxGeometry>
        </mxCell>
        <mxCell id="SWWJKwSC1oh0T_Rhf9oI-29" value="" style="endArrow=classic;startArrow=classic;html=1;rounded=0;strokeWidth=5;strokeColor=#FFB366;exitX=1;exitY=0.75;exitDx=0;exitDy=0;" edge="1" parent="1" source="SWWJKwSC1oh0T_Rhf9oI-22">
          <mxGeometry width="50" height="50" relative="1" as="geometry">
            <mxPoint x="650" y="975" as="sourcePoint" />
            <mxPoint x="520" y="699" as="targetPoint" />
            <Array as="points">
              <mxPoint x="720" y="975" />
              <mxPoint x="720" y="877" />
              <mxPoint x="720" y="700" />
            </Array>
          </mxGeometry>
        </mxCell>
        <mxCell id="SWWJKwSC1oh0T_Rhf9oI-32" value="" style="endArrow=classic;startArrow=classic;html=1;rounded=0;entryX=0.532;entryY=1.018;entryDx=0;entryDy=0;exitX=0.5;exitY=0;exitDx=0;exitDy=0;entryPerimeter=0;strokeWidth=5;strokeColor=#000000;" edge="1" parent="1" source="SWWJKwSC1oh0T_Rhf9oI-8" target="SWWJKwSC1oh0T_Rhf9oI-4">
          <mxGeometry width="50" height="50" relative="1" as="geometry">
            <mxPoint x="390" y="450" as="sourcePoint" />
            <mxPoint x="440" y="400" as="targetPoint" />
          </mxGeometry>
        </mxCell>
        <mxCell id="SWWJKwSC1oh0T_Rhf9oI-33" value="" style="endArrow=classic;startArrow=classic;html=1;rounded=0;entryX=0.532;entryY=1.018;entryDx=0;entryDy=0;entryPerimeter=0;strokeWidth=5;strokeColor=#000000;" edge="1" parent="1">
          <mxGeometry width="50" height="50" relative="1" as="geometry">
            <mxPoint x="395" y="250" as="sourcePoint" />
            <mxPoint x="395" y="101" as="targetPoint" />
          </mxGeometry>
        </mxCell>
      </root>
    </mxGraphModel>
  </diagram>
</mxfile>
